<svg width="532" height="193" viewBox="0 0 532 193" fill="none" xmlns="http://www.w3.org/2000/svg">
<rect y="17" width="532" height="176" fill="white"/>
<path d="M275.75 144C275.75 154.409 266.361 164.163 250.399 171.373C234.529 178.541 212.535 183 188.188 183C163.84 183 141.846 178.541 125.976 171.373C110.014 164.163 100.625 154.409 100.625 144C100.625 133.591 110.014 123.837 125.976 116.627C141.846 109.459 163.84 105 188.188 105C212.535 105 234.529 109.459 250.399 116.627C266.361 123.837 275.75 133.591 275.75 144Z" stroke="#01E472" stroke-width="2"/>
<rect x="86" y="104" width="218" height="55.7576" fill="white"/>
<path d="M50.536 45.608C57.6187 45.608 63.5493 46.3333 68.328 47.784C73.192 49.1493 76.8613 51.5813 79.336 55.08C81.8107 58.5787 83.048 63.4853 83.048 69.8C83.048 76.5413 81.2133 82.0453 77.544 86.312C73.96 90.4933 68.9253 93.4373 62.44 95.144L87.528 137H83.304L58.856 96.04H33.512V137H30.184V45.608H50.536ZM49.896 48.808H33.512V92.84H54.376C61.8 92.84 67.8587 90.8347 72.552 86.824C77.2453 82.8133 79.592 77.1813 79.592 69.928C79.592 64.4667 78.4827 60.2 76.264 57.128C74.1307 54.056 70.8453 51.9227 66.408 50.728C62.056 49.448 56.552 48.808 49.896 48.808ZM179.195 91.176C179.195 100.392 177.702 108.541 174.715 115.624C171.814 122.707 167.376 128.253 161.403 132.264C155.515 136.275 148.048 138.28 139.003 138.28C130.128 138.28 122.704 136.275 116.731 132.264C110.843 128.168 106.406 122.579 103.419 115.496C100.432 108.413 98.939 100.264 98.939 91.048C98.939 81.832 100.518 73.7253 103.675 66.728C106.832 59.6453 111.44 54.1413 117.499 50.216C123.643 46.2053 131.067 44.2 139.771 44.2C152.4 44.2 162.128 48.3387 168.955 56.616C175.782 64.808 179.195 76.328 179.195 91.176ZM102.395 91.048C102.395 99.5813 103.718 107.176 106.363 113.832C109.008 120.403 113.062 125.608 118.523 129.448C123.984 133.203 130.854 135.08 139.131 135.08C147.494 135.08 154.363 133.245 159.739 129.576C165.2 125.821 169.211 120.659 171.771 114.088C174.416 107.432 175.739 99.7947 175.739 91.176C175.739 77.2667 172.624 66.5147 166.395 58.92C160.166 51.24 151.291 47.4 139.771 47.4C131.408 47.4 124.454 49.2773 118.907 53.032C113.36 56.7867 109.222 61.9493 106.491 68.52C103.76 75.0907 102.395 82.6 102.395 91.048ZM275.695 91.176C275.695 100.392 274.202 108.541 271.215 115.624C268.314 122.707 263.876 128.253 257.903 132.264C252.015 136.275 244.548 138.28 235.503 138.28C226.628 138.28 219.204 136.275 213.231 132.264C207.343 128.168 202.906 122.579 199.919 115.496C196.932 108.413 195.439 100.264 195.439 91.048C195.439 81.832 197.018 73.7253 200.175 66.728C203.332 59.6453 207.94 54.1413 213.999 50.216C220.143 46.2053 227.567 44.2 236.271 44.2C248.9 44.2 258.628 48.3387 265.455 56.616C272.282 64.808 275.695 76.328 275.695 91.176ZM198.895 91.048C198.895 99.5813 200.218 107.176 202.863 113.832C205.508 120.403 209.562 125.608 215.023 129.448C220.484 133.203 227.354 135.08 235.631 135.08C243.994 135.08 250.863 133.245 256.239 129.576C261.7 125.821 265.711 120.659 268.271 114.088C270.916 107.432 272.239 99.7947 272.239 91.176C272.239 77.2667 269.124 66.5147 262.895 58.92C256.666 51.24 247.791 47.4 236.271 47.4C227.908 47.4 220.954 49.2773 215.407 53.032C209.86 56.7867 205.722 61.9493 202.991 68.52C200.26 75.0907 198.895 82.6 198.895 91.048ZM336.099 137L300.515 50.088H300.259C300.344 52.2213 300.387 54.056 300.387 55.592C300.387 57.0427 300.387 58.7493 300.387 60.712V137H297.059V45.608H302.435L337.251 130.856H337.635L372.579 45.608H377.699V137H374.371V59.944C374.371 58.664 374.371 57.256 374.371 55.72C374.371 54.184 374.414 52.3493 374.499 50.216H374.243L338.659 137H336.099ZM419.544 137H398.808V134.44L407.512 134.056V48.68L398.808 48.168V45.608H419.544V48.168L410.84 48.68V134.056L419.544 134.44V137ZM489.714 137H440.434V45.608H489.714V48.808H443.762V87.208H487.154V90.408H443.762V133.8H489.714V137Z" fill="url(#paint0_linear_185_19)"/>
<ellipse cx="153" cy="75.5" rx="8" ry="11.5" fill="url(#paint1_linear_185_19)"/>
<ellipse cx="253" cy="75.5" rx="8" ry="11.5" fill="url(#paint2_linear_185_19)"/>
<defs>
<linearGradient id="paint0_linear_185_19" x1="55.8613" y1="92.3265" x2="448.8" y2="83.2441" gradientUnits="userSpaceOnUse">
<stop stop-color="#01E472"/>
<stop offset="1" stop-color="#0779E2" stop-opacity="0.99"/>
</linearGradient>
<linearGradient id="paint1_linear_185_19" x1="130.5" y1="75" x2="202.5" y2="75" gradientUnits="userSpaceOnUse">
<stop stop-color="#01E472"/>
<stop offset="1" stop-color="#0779E2" stop-opacity="0.99"/>
</linearGradient>
<linearGradient id="paint2_linear_185_19" x1="230.5" y1="75" x2="302.5" y2="75" gradientUnits="userSpaceOnUse">
<stop stop-color="#01E472"/>
<stop offset="1" stop-color="#0779E2" stop-opacity="0.99"/>
</linearGradient>
</defs>
</svg>
